<svg xmlns="http://www.w3.org/2000/svg" viewBox="0 0 1200 630" role="img" aria-label="Uppify — Shopify Development Skill for AI Agents">
  <defs>
    <linearGradient id="bg" x1="0" y1="0" x2="1" y2="1">
      <stop offset="0" stop-color="#0a0c16"/>
      <stop offset="1" stop-color="#11102a"/>
    </linearGradient>
    <linearGradient id="g" x1="0" y1="0" x2="1" y2="0">
      <stop offset="0" stop-color="#7C5CFF"/>
      <stop offset=".5" stop-color="#B14DF9"/>
      <stop offset="1" stop-color="#9EF85B"/>
    </linearGradient>
    <filter id="b" x="-50%" y="-50%" width="200%" height="200%"><feGaussianBlur stdDeviation="90"/></filter>
  </defs>
  <rect width="1200" height="630" fill="url(#bg)"/>
  <circle cx="980" cy="120" r="200" fill="#7C5CFF" opacity="0.45" filter="url(#b)"/>
  <circle cx="1080" cy="560" r="200" fill="#3AD6C5" opacity="0.35" filter="url(#b)"/>
  <!-- logo -->
  <g transform="translate(90,86)">
    <rect width="72" height="72" rx="18" fill="url(#g)"/>
    <path d="M36 20 L54 46 H44 V56 H28 V46 H18 Z" fill="#0b0e1a"/>
    <text x="92" y="50" font-family="ui-sans-serif, system-ui, sans-serif" font-size="38" font-weight="800" fill="#e8eaf2">Uppify</text>
  </g>
  <text x="90" y="290" font-family="ui-sans-serif, system-ui, sans-serif" font-size="76" font-weight="800" fill="#ffffff">Develop for Shopify</text>
  <text x="90" y="372" font-family="ui-sans-serif, system-ui, sans-serif" font-size="76" font-weight="800" fill="url(#g)">at AI speed.</text>
  <text x="92" y="436" font-family="ui-sans-serif, system-ui, sans-serif" font-size="30" font-weight="500" fill="#aab2c8">The complete shopify.dev reference as an installable AI skill.</text>
  <g font-family="ui-monospace, SFMono-Regular, Menlo, monospace" font-size="24" font-weight="600" fill="#cdd3e6">
    <rect x="90" y="486" width="250" height="58" rx="14" fill="#141828" stroke="#ffffff" stroke-opacity="0.12"/>
    <text x="116" y="523">648 pages</text>
    <rect x="360" y="486" width="290" height="58" rx="14" fill="#141828" stroke="#ffffff" stroke-opacity="0.12"/>
    <text x="386" y="523">155 Liquid filters</text>
    <rect x="670" y="486" width="300" height="58" rx="14" fill="#141828" stroke="#ffffff" stroke-opacity="0.12"/>
    <text x="696" y="523">Apps · Hydrogen · Fns</text>
  </g>
</svg>
